HIERARCHY
ROOT Hips
{
	OFFSET 4.411066 101.972816 -4.785297
	CHANNELS 6 Xposition Yposition Zposition Xrotation Yrotation Zrotation
	JOINT Chest
	{
		OFFSET 1.393947 13.202904 -3.145559
		CHANNELS 3 Xrotation Yrotation Zrotation
		JOINT Chest2
		{
			OFFSET -3.714809 21.080490 0.938036
			CHANNELS 3 Xrotation Yrotation Zrotation
			JOINT Chest3
			{
				OFFSET 0.541956 14.870605 1.179568
				CHANNELS 3 Xrotation Yrotation Zrotation
				JOINT Neck
				{
					OFFSET 0.098039 17.279282 0.181172
					CHANNELS 3 Xrotation Yrotation Zrotation
					JOINT Head
					{
						OFFSET -2.951945 10.045410 0.451089
						CHANNELS 3 Xrotation Yrotation Zrotation
						End Site
						{
							OFFSET -2.905881 10.061127 0.396585
						}
					}
				}
				JOINT LeftCollar
				{
					OFFSET 2.953767 13.196732 4.350389
					CHANNELS 3 Xrotation Yrotation Zrotation
					JOINT LeftUpArm
					{
						OFFSET 17.514698 -0.711594 -1.108328
						CHANNELS 3 Xrotation Yrotation Zrotation
						JOINT LeftLowArm
						{
							OFFSET 32.370888 2.786316 9.170055
							CHANNELS 3 Xrotation Yrotation Zrotation
							JOINT LeftHand
							{
								OFFSET 11.477695 17.219650 21.741495
								CHANNELS 3 Xrotation Yrotation Zrotation
								End Site
								{
									OFFSET 2.508545 3.763443 4.751730
								}
							}
						}
					}
				}
				JOINT RightCollar
				{
					OFFSET -4.891610 13.273346 1.303544
					CHANNELS 3 Xrotation Yrotation Zrotation
					JOINT RightUpArm
					{
						OFFSET -14.903593 -1.817657 -9.114574
						CHANNELS 3 Xrotation Yrotation Zrotation
						JOINT RightLowArm
						{
							OFFSET -31.722324 -6.500778 9.548244
							CHANNELS 3 Xrotation Yrotation Zrotation
							JOINT RightHand
							{
								OFFSET -19.744263 15.415924 16.536863
								CHANNELS 3 Xrotation Yrotation Zrotation
								End Site
								{
									OFFSET -4.315292 3.369324 3.614295
								}
							}
						}
					}
				}
			}
		}
	}
	JOINT LeftUpLeg
	{
		OFFSET 5.504375 1.386162 8.258303
		CHANNELS 3 Xrotation Yrotation Zrotation
		JOINT LeftLowLeg
		{
			OFFSET -33.595909 17.498123 28.445021
			CHANNELS 3 Xrotation Yrotation Zrotation
			JOINT LeftFoot
			{
				OFFSET -31.332190 -29.827797 11.365032
				CHANNELS 3 Xrotation Yrotation Zrotation
				JOINT LeftToe
				{
					OFFSET -17.016647 7.837158 14.442032
					CHANNELS 3 Xrotation Yrotation Zrotation
					End Site
					{
						OFFSET -7.319633 19.875870 10.532417
					}
				}
			}
		}
	}
	JOINT RightUpLeg
	{
		OFFSET -5.504397 -1.386353 -8.258259
		CHANNELS 3 Xrotation Yrotation Zrotation
		JOINT RightLowLeg
		{
			OFFSET -0.396047 -47.356102 -1.119327
			CHANNELS 3 Xrotation Yrotation Zrotation
			JOINT RightFoot
			{
				OFFSET 7.041425 -43.322258 -8.612689
				CHANNELS 3 Xrotation Yrotation Zrotation
				JOINT RightToe
				{
					OFFSET -16.852417 -16.248375 3.397457
					CHANNELS 3 Xrotation Yrotation Zrotation
					End Site
					{
						OFFSET -22.949474 -1.663890 5.487183
					}
				}
			}
		}
	}
}
MOTION
Frames: 7
Frame Time: 0.033333
24.253124 106.155197 -31.440985 21.227367 57.355052 357.651682 -9.508340 -1.519523 -7.215414 -3.365632 -3.598674 6.513440 8.668654 -37.989727 -5.969697 20.299920 26.305449 -21.661743 -0.000002 0.000003 -0.000002 18.291682 -6.806257 -10.320473 202.602453 -156.626947 154.979082 31.294421 -20.969965 20.276943 0.000002 0.000002 0.000002 4.060229 -25.557972 -6.786065 34.472532 -16.549791 40.047120 127.497447 64.625549 -113.350363 -0.000003 -0.000003 0.000001 42.609910 40.707876 52.993833 -6.130035 4.144000 -12.921599 -6.125740 -10.733121 4.652726 -0.000000 0.000003 -0.000000 -32.202911 10.202412 -26.677578 -13.811884 -6.225491 19.196262 12.820980 -16.085123 9.381478 0.000002 0.000000 0.000003 
26.614500 105.109711 -31.419258 20.142438 58.152558 359.047363 -7.448793 -1.515879 -6.388007 -2.966262 -3.646647 7.036186 6.869095 -39.163639 -7.867064 17.944393 26.280642 -22.333308 0.000001 0.000005 0.000003 19.893431 -11.659141 -13.094432 200.541881 -152.178896 159.156563 20.988934 -6.892661 12.716672 0.000001 -0.000002 -0.000000 4.899398 -21.362766 -5.002862 27.519681 -8.206258 36.535768 105.374144 68.245119 -94.205364 -0.000004 0.000001 -0.000002 42.036290 39.139419 52.446052 -3.648417 1.398252 -7.471862 -4.469107 -8.982305 5.083989 -0.000002 -0.000002 -0.000000 -33.602833 11.051926 -27.067118 -12.504418 -5.051704 19.762247 14.529255 -23.840955 5.033128 0.000001 0.000002 -0.000002 
28.970331 103.845558 -31.420254 20.747615 56.721931 360.271824 -5.390841 -1.578280 -3.851472 -3.236004 -2.639740 4.753126 7.774103 -39.659077 -6.940488 14.231206 25.998417 -23.346140 -0.000001 0.000001 0.000003 20.884562 -14.832821 -12.854620 199.891182 -150.472428 163.887684 14.084578 7.303024 7.950635 -0.000003 0.000000 -0.000000 6.286941 -17.948402 -7.236515 21.679673 0.727909 33.550903 82.011154 69.088511 -69.132286 0.000003 -0.000003 -0.000004 39.068061 36.323110 49.777514 0.194015 -3.886255 -1.410069 -1.986994 -7.335844 7.273602 -0.000000 0.000002 -0.000001 -35.138455 12.707658 -31.510255 -11.713164 -5.478344 23.681335 13.815294 -28.160003 -1.030707 0.000002 0.000000 0.000000 
31.113949 102.546326 -31.394470 22.491630 55.358909 360.573227 -4.186417 -1.557776 -1.884227 -2.537650 -1.855557 3.971265 7.132194 -39.093479 -6.962407 10.528799 25.872379 -24.197265 -0.000002 0.000003 -0.000000 20.865057 -16.873467 -10.639439 199.208532 -148.893725 167.422799 8.640603 19.322901 5.230967 0.000002 0.000001 0.000000 8.326558 -13.538689 -11.365740 16.195224 9.966078 25.919164 50.014029 61.667176 -40.105054 0.000001 0.000000 0.000004 35.902606 34.127792 47.192605 3.812624 -8.460562 4.080148 -0.493522 -6.218994 8.117120 -0.000002 0.000001 0.000003 -36.793331 14.231011 -34.720946 -11.798299 -5.663496 26.614710 12.155017 -31.473922 -7.236033 -0.000002 -0.000001 0.000000 
33.222969 101.008987 -31.375471 23.950764 53.541696 359.829966 -3.637655 -1.420983 -0.656610 -2.678247 -1.277998 2.408394 7.475403 -38.425207 -6.348227 8.967314 25.869393 -24.997645 -0.000003 0.000006 -0.000001 19.633027 -16.622362 -9.742131 197.247995 -151.145283 167.003180 4.404721 28.517078 2.696353 -0.000003 0.000002 0.000000 9.014570 -10.978761 -14.354623 11.242111 17.890222 23.365317 36.740325 54.539870 -27.453647 -0.000000 -0.000000 -0.000000 32.299613 34.368901 45.802248 7.942456 -13.216318 9.710243 0.451494 -7.021484 10.331940 -0.000001 0.000000 0.000001 -39.054004 15.640616 -37.033149 -11.267574 -5.742131 30.457320 9.814723 -33.235697 -13.375787 0.000000 0.000006 0.000002 
35.303619 99.303940 -31.376480 25.312719 52.227574 359.103589 -3.137736 -1.241914 -0.322243 -1.857267 -0.925007 2.235160 6.248449 -36.801797 -6.830312 7.289694 24.864952 -25.474656 -0.000003 0.000001 0.000001 18.283228 -17.704335 -9.167101 194.481550 -152.313792 168.984535 2.102500 35.465703 -1.365821 0.000001 0.000000 -0.000001 10.582656 -6.165878 -17.542550 7.535195 25.294004 14.102119 24.514929 41.845717 -14.971524 0.000002 -0.000001 -0.000004 29.734969 34.934830 44.960635 12.119612 -17.029362 14.569774 0.135621 -7.893705 10.917530 -0.000003 -0.000003 -0.000003 -41.396011 17.693047 -40.654625 -9.013499 -5.595796 37.347993 7.572079 -33.701724 -18.766385 0.000000 -0.000003 0.000001 
37.226524 97.680634 -31.377907 27.338145 51.968307 357.733098 -3.158969 -1.173285 0.466228 -1.812960 -0.874589 2.045025 6.204985 -35.678548 -6.999825 5.782188 23.757379 -25.275147 0.000000 0.000006 0.000003 18.159043 -19.484148 -7.199180 193.075050 -152.847940 171.058891 0.145400 40.435471 -3.504318 0.000003 0.000001 -0.000001 11.206431 -4.679053 -19.588342 5.508578 31.654676 7.102314 18.439947 30.810386 -8.743901 0.000002 0.000005 -0.000001 28.228040 35.155643 44.349805 15.165472 -18.515270 18.415993 -0.451979 -9.131115 11.120934 -0.000001 0.000003 0.000003 -42.826738 19.188575 -43.171553 -7.619779 -5.521053 43.003066 6.076407 -34.435410 -22.775867 -0.000000 0.000003 0.000001 
